PathFileType  4	(X/Y/Z) C:\Users\antoi\Documents\MyRepositories\mobilecap\ResultsAnalysis
DataRate	CameraRate	NumFrames	NumMarkers	Units	OrigDataRate	OrigDataStartFrame	OrigNumFrames
100.0	100.0	5	51	mm	100.0	68	135
Frame#	Time	r_knee			r_shank_antsup			r_ankle			r_calc			r_5meta			r_toe			L_knee			L_shank_antsup			L_ankle			L_calc			L_5meta			L_toe			r_sh2			r_sh3			r_sh4			L_sh2			L_sh3			r_thigh1			r_thigh2			r_thigh3			r_thigh4			r_thigh5			L_thigh1			L_thigh2			L_thigh3			L_thigh4			r.ASIS			r.PSIS			L.ASIS			L.PSIS			C7			R_Shoulder			L_Shoulder			R_Sternum			L_Sternum			R_humerus			R_elbow_med			R_elbow_lat			R_forearm			R_wrist_radius			R_wrist_ulna			L_humerus			L_elbow_med			L_elbow_lat			L_forearm			L_wrist_radius			L_wrist_ulna			R_HJC			L_HJC			R_HJC_reg			L_HJC_reg			
		X1	Y1	Z1	X2	Y2	Z2	X3	Y3	Z3	X4	Y4	Z4	X5	Y5	Z5	X6	Y6	Z6	X7	Y7	Z7	X8	Y8	Z8	X9	Y9	Z9	X10	Y10	Z10	X11	Y11	Z11	X12	Y12	Z12	X13	Y13	Z13	X14	Y14	Z14	X15	Y15	Z15	X16	Y16	Z16	X17	Y17	Z17	X18	Y18	Z18	X19	Y19	Z19	X20	Y20	Z20	X21	Y21	Z21	X22	Y22	Z22	X23	Y23	Z23	X24	Y24	Z24	X25	Y25	Z25	X26	Y26	Z26	X27	Y27	Z27	X28	Y28	Z28	X29	Y29	Z29	X30	Y30	Z30	X31	Y31	Z31	X32	Y32	Z32	X33	Y33	Z33	X34	Y34	Z34	X35	Y35	Z35	X36	Y36	Z36	X37	Y37	Z37	X38	Y38	Z38	X39	Y39	Z39	X40	Y40	Z40	X41	Y41	Z41	X42	Y42	Z42	X43	Y43	Z43	X44	Y44	Z44	X45	Y45	Z45	X46	Y46	Z46	X47	Y47	Z47	X48	Y48	Z48	X49	Y49	Z49	X50	Y50	Z50	X51	Y51	Z51	

68	0.67000000	688.68773	461.83837	-21.10830	672.58180	381.02572	-37.66375	383.21286	201.43989	-75.38092	325.22268	238.67888	-117.03863	392.51205	77.04135	-57.07356	451.65062	61.86030	-105.44704	856.91950	492.19223	-308.62461	899.42965	399.70926	-309.59798	861.89493	94.75684	-259.45627	802.01566	62.90481	-202.53425	962.32991	42.39064	-307.53745	1011.77060	68.14758	-257.27918	573.24998	320.16238	-25.76666	625.13245	444.93553	-14.84471	532.01583	382.52683	-25.58691	810.53460	403.99078	-307.03209	817.29093	282.07911	-304.30358	784.00309	771.11558	-5.97612	770.13703	661.64482	-4.56867	661.92485	664.29028	-0.88249	670.56928	779.89940	8.43495	712.93898	641.62457	15.36758	812.24809	755.77605	-371.06670	859.62272	628.72893	-341.77732	707.63730	720.38092	-334.68068	760.23711	591.46345	-312.73681	811.35643	944.65452	-44.42802	625.87041	988.23620	-133.68479	826.87887	941.11339	-294.61998	621.84654	996.71867	-234.26475	614.54246	1391.77173	-198.15450	735.00039	1372.83151	-29.33643	676.88849	1358.61965	-380.77625	757.21987	1374.51052	-191.20300	758.74072	1374.07998	-234.26171	769.73378	1244.87902	33.83826	754.90194	1022.36534	7.10841	776.61282	1046.08431	72.20381	900.49272	974.23668	63.88017	998.34191	880.46289	46.51136	982.05405	860.18134	71.64699	655.36433	1244.54930	-433.85326	573.50906	1035.36244	-331.65703	555.62579	1056.04430	-406.80667	559.20627	946.69895	-437.12641	503.21429	798.36746	-448.77260	473.64081	815.40134	-458.87228	732.27295	867.32115	-74.49580	743.69091	870.29646	-280.61938	748.78073	862.21011	-83.10760	742.19035	876.09835	-247.83973	
69	0.68000000	712.71070	460.27314	-18.42465	695.68310	380.17790	-35.26773	401.17251	210.13492	-73.49698	346.06440	251.67761	-115.48417	402.79169	85.13461	-55.89482	461.57585	66.53914	-103.41105	862.75518	492.24035	-309.92105	903.81644	398.72651	-311.07414	862.12809	94.67522	-259.38754	801.92994	62.88305	-202.64473	962.38541	42.26593	-307.81346	1011.86913	67.75662	-257.35345	594.85741	322.09729	-23.68391	650.31613	445.18510	-11.51863	555.35515	385.73318	-23.26406	815.07996	404.38600	-308.22836	820.09625	282.24527	-305.00737	798.13736	771.99981	-5.80153	788.21921	661.60392	-3.18016	679.34319	661.71148	-0.17394	684.37679	777.60965	7.25611	730.49669	640.35359	16.73645	821.68052	756.41222	-372.93776	867.16540	628.63524	-343.65606	716.49396	722.50720	-336.78994	767.38472	592.91415	-314.47149	822.29487	944.42691	-46.11223	636.84367	987.95875	-134.35212	837.75844	942.35827	-296.22899	632.86047	997.57714	-234.92690	625.92078	1392.44599	-200.08166	745.31968	1373.85527	-30.37158	689.76025	1359.01065	-382.25738	768.53081	1375.37121	-192.08766	770.37270	1374.89376	-235.03933	778.86587	1245.66386	33.21202	761.75921	1023.27672	6.87545	783.47148	1046.88664	72.03392	906.56840	973.65163	64.55431	1003.40705	878.59765	47.96900	986.71304	858.62895	73.09311	670.29040	1244.19699	-435.62345	590.15757	1033.94454	-334.46082	573.15674	1054.08430	-409.84500	579.54058	944.68113	-439.95760	526.96652	794.82395	-452.46589	496.83945	811.47326	-462.41970	743.53036	867.03089	-76.36980	754.59128	871.44881	-282.48260	760.08742	861.38809	-85.77216	753.57164	877.11862	-250.28277	
70	0.69000000	736.78081	459.41452	-16.02113	719.14993	379.95754	-33.26318	420.15168	218.73427	-71.98587	367.40255	263.29295	-114.61097	415.73435	93.75206	-54.32763	474.31238	72.35891	-100.90125	868.01209	492.15302	-311.03376	907.77615	397.78574	-312.29883	862.34848	94.60004	-259.28780	801.86126	62.87297	-202.73025	962.42758	42.15256	-308.01170	1011.98429	67.44589	-257.39604	616.99075	324.55406	-21.89802	675.77483	445.90977	-8.52353	579.16273	389.24272	-21.18254	819.17268	404.72808	-309.18986	822.61629	282.39339	-305.53552	811.81805	773.24578	-5.51229	805.99304	661.96496	-1.92648	696.46348	659.51523	0.16115	697.84640	775.63011	6.02641	747.72757	639.51302	17.89352	830.62635	756.86750	-374.60932	874.16994	628.37992	-345.30620	724.79725	724.48265	-338.46075	774.04862	594.25593	-315.86378	833.01913	943.90106	-47.61525	647.54108	987.65830	-134.90173	848.39179	943.43282	-297.79273	643.61432	998.35368	-235.48539	637.17802	1393.10144	-201.96045	755.48916	1374.78188	-31.32762	702.61567	1359.35699	-383.69381	779.78363	1376.16830	-192.88389	781.94089	1375.62998	-235.72953	787.84591	1246.33671	32.63576	768.48754	1024.12242	6.64784	790.16347	1047.60205	71.84908	912.47340	973.00493	65.30378	1008.31609	876.68894	49.53631	991.23931	857.03109	74.62726	685.33362	1243.78372	-437.30198	606.96367	1032.41759	-337.32206	591.04746	1051.97869	-412.93875	600.39834	942.60553	-442.80459	551.49809	791.16266	-456.23258	520.88194	807.37714	-466.00563	754.45621	866.55400	-78.17369	765.16054	872.48267	-284.26704	771.00007	860.47850	-88.23983	764.58240	877.95740	-252.61399	
71	0.70000000	760.77261	459.42454	-13.90742	742.88613	380.44413	-31.65184	440.13538	227.05079	-70.91419	389.00462	273.26084	-114.43172	431.63404	102.55268	-52.30735	490.10199	78.98478	-97.99451	872.83171	491.99728	-311.94525	911.45797	396.92860	-313.22374	862.57144	94.54751	-259.16418	801.82493	62.87513	-202.77797	962.45462	42.05623	-308.13654	1012.10591	67.18848	-257.40296	639.50699	327.54354	-20.43869	701.28515	447.20029	-5.99525	603.26166	393.02322	-19.38375	822.94676	405.03771	-309.98205	824.98420	282.56366	-305.95537	825.05192	774.95444	-5.18591	823.35455	662.92170	-0.81108	713.30012	657.82467	0.00612	710.97968	774.06560	4.68134	764.66770	639.19967	18.72687	839.11668	757.19897	-376.03591	880.70986	628.02153	-346.69717	732.62429	726.31438	-339.64180	780.28359	595.52257	-316.88747	843.56370	943.18460	-48.92846	658.00492	987.45248	-135.39390	858.80705	944.31394	-299.28708	654.12739	999.11015	-235.99938	648.33052	1393.77788	-203.77715	765.50416	1375.63015	-32.18550	715.44594	1359.66923	-385.09700	790.96358	1376.93951	-193.59042	793.41680	1376.31815	-236.33770	796.63666	1246.90792	32.12758	775.12931	1024.90127	6.39079	796.68043	1048.21938	71.63514	918.20744	972.29272	66.12888	1013.06809	874.74868	51.21073	995.61929	855.39505	76.24745	700.48690	1243.31860	-438.87196	623.92231	1030.78171	-340.22645	609.30740	1049.75575	-416.08360	621.78375	940.50682	-445.63170	576.76818	787.44617	-460.03811	545.83789	803.17149	-469.63638	765.04448	866.00969	-79.87121	775.41623	873.40020	-285.93875	781.54409	859.59339	-90.42929	775.21032	878.63721	-254.75332	
72	0.71000000	784.57147	460.39365	-12.09916	766.80018	381.68389	-30.40305	461.14318	234.83193	-70.27812	410.80038	281.45753	-114.82593	450.53937	111.13721	-49.85522	508.92325	85.95579	-94.84340	877.33820	491.83243	-312.65361	914.93974	396.17717	-313.86182	862.79487	94.52988	-259.03044	801.82569	62.88718	-202.78655	962.46614	41.97965	-308.20385	1012.22230	66.96922	-257.38397	662.32707	330.97735	-19.31636	726.63025	449.10164	-4.02743	627.48448	396.98496	-17.90531	826.48103	405.32408	-310.66457	827.26710	282.78546	-306.30510	837.88426	777.18817	-4.88622	840.28688	664.58191	0.14048	729.89852	656.70023	-0.68898	723.82467	772.97071	3.16426	781.37185	639.47721	19.16480	847.19487	757.46143	-377.20765	886.85591	627.61179	-347.83027	740.08857	728.03590	-340.37042	786.14830	596.75725	-317.55753	853.96032	942.44477	-50.07776	668.29144	987.48054	-135.88481	869.01886	945.00828	-300.69895	664.43099	999.92793	-236.52258	659.41087	1394.53211	-205.51309	775.38065	1376.43657	-32.93275	728.24077	1359.97591	-386.47048	802.05602	1377.72796	-194.20350	804.77404	1376.99752	-236.86831	805.21328	1247.41126	31.70133	781.73445	1025.62532	6.07038	803.02472	1048.75812	71.37930	923.76978	971.52458	67.02193	1017.64726	872.78968	52.98350	999.82212	853.72936	77.94626	715.75370	1242.82651	-440.31958	641.04506	1029.04901	-343.16361	627.94011	1047.46688	-419.27000	643.70746	938.44110	-448.39947	602.74872	783.76086	-463.84192	571.76414	798.94650	-473.30697	775.31081	865.55927	-81.42571	785.37663	874.22765	-287.46682	791.75919	858.88490	-92.28778	785.45461	879.21586	-256.63473	
